<svg xmlns="http://www.w3.org/2000/svg" width="20" height="20" viewBox="0 0 20 20" fill="none">
             <path d="M14.1667 16.6666C15.0871 16.6666 15.8333 15.9204 15.8333 14.9999C15.8333 14.0794 15.0871 13.3333 14.1667 13.3333C13.2462 13.3333 12.5 14.0794 12.5 14.9999C12.5 15.9204 13.2462 16.6666 14.1667 16.6666Z" stroke="#443D36" stroke-width="1.5" stroke-linecap="round" stroke-linejoin="round"/>
             <path d="M5.83329 16.6666C6.75377 16.6666 7.49996 15.9204 7.49996 14.9999C7.49996 14.0794 6.75377 13.3333 5.83329 13.3333C4.91282 13.3333 4.16663 14.0794 4.16663 14.9999C4.16663 15.9204 4.91282 16.6666 5.83329 16.6666Z" stroke="#443D36" stroke-width="1.5" stroke-linecap="round" stroke-linejoin="round"/>
             <path d="M4.16663 14.9766C3.25246 14.9316 2.68329 14.7958 2.27663 14.3899C1.86996 13.9841 1.73496 13.4141 1.68996 12.4999M7.49996 14.9999H12.5M15.8333 14.9766C16.7475 14.9316 17.3166 14.7958 17.7233 14.3899C18.3333 13.7791 18.3333 12.7974 18.3333 10.8333V9.16659H14.4166C13.7958 9.16659 13.4858 9.16659 13.235 9.08492C12.9848 9.00364 12.7575 8.86432 12.5715 8.67835C12.3856 8.49238 12.2462 8.26504 12.165 8.01492C12.0833 7.76409 12.0833 7.45409 12.0833 6.83325C12.0833 5.90242 12.0833 5.43742 11.9608 5.06075C11.8389 4.68556 11.6299 4.34456 11.3509 4.0656C11.072 3.78665 10.731 3.57767 10.3558 3.45575C9.97913 3.33325 9.51413 3.33325 8.58329 3.33325H1.66663M1.66663 6.66659H6.66663M1.66663 9.16659H4.99996" stroke="#443D36" stroke-width="1.5" stroke-linecap="round" stroke-linejoin="round"/>
             <path d="M12.0833 5H13.6008C14.8141 5 15.4199 5 15.9133 5.295C16.4074 5.58917 16.6949 6.12333 17.2699 7.19167L18.3333 9.16667" stroke="#443D36" stroke-width="1.5" stroke-linecap="round" stroke-linejoin="round"/>
             </svg>